<svg width="25" height="18" viewBox="0 0 25 18" fill="none" xmlns="http://www.w3.org/2000/svg">
<path id="Vector" d="M16.4999 8.99999C15.4719 8.99999 14.4779 8.53056 13.6999 7.67863C12.9434 6.84766 12.4814 5.73954 12.3999 4.55931C12.3129 3.30034 12.6884 2.14261 13.4569 1.29886C14.2254 0.455113 15.2999 0 16.4999 0C17.6914 0 18.7688 0.463295 19.5348 1.305C20.3083 2.15488 20.6848 3.31056 20.5978 4.5588C20.5143 5.74056 20.0528 6.84817 19.2978 7.67812C18.5218 8.53056 17.5284 8.99999 16.4999 8.99999ZM23.0913 18H9.90889C9.69695 18.0011 9.48757 17.9526 9.29687 17.858C9.10617 17.7634 8.93923 17.6253 8.8089 17.4544C8.67065 17.269 8.57518 17.0542 8.52964 16.8258C8.48409 16.5974 8.48965 16.3614 8.5459 16.1356C8.9669 14.4066 10.0099 12.9728 11.5619 11.9894C12.9394 11.117 14.6929 10.6364 16.4999 10.6364C18.3424 10.6364 20.0498 11.0966 21.4353 11.9685C22.9908 12.9467 24.0353 14.3887 24.4543 16.1386C24.5099 16.3647 24.5148 16.6006 24.4688 16.8289C24.4227 17.0572 24.3268 17.2718 24.1883 17.4569C24.0581 17.6271 23.8916 17.7645 23.7014 17.8586C23.5113 17.9527 23.3026 18.0011 23.0913 18ZM7.04991 9.20454C5.29042 9.20454 3.74343 7.53136 3.59993 5.47516C3.52893 4.42176 3.84993 3.44761 4.49992 2.73324C5.14292 2.02602 6.04991 1.63636 7.04991 1.63636C8.0499 1.63636 8.9499 2.02807 9.5964 2.73937C10.2514 3.45937 10.5714 4.43147 10.4964 5.47619C10.3529 7.53187 8.8064 9.20454 7.04991 9.20454ZM10.3329 10.8128C9.4534 10.373 8.3119 10.1531 7.05041 10.1531C5.57742 10.1531 4.14692 10.5458 3.02193 11.2587C1.74644 12.0682 0.888441 13.2469 0.541943 14.67C0.491236 14.8747 0.48644 15.0885 0.527914 15.2953C0.569388 15.5022 0.656058 15.6968 0.781442 15.8645C0.900415 16.0207 1.05283 16.1469 1.22697 16.2335C1.40111 16.32 1.59234 16.3645 1.78594 16.3636H7.33591C7.42958 16.3636 7.52028 16.33 7.59219 16.2686C7.6641 16.2072 7.71266 16.1219 7.7294 16.0277C7.7349 15.9954 7.74191 15.9632 7.74991 15.9315C8.1739 14.1898 9.1674 12.7181 10.6354 11.6453C10.6894 11.6055 10.7328 11.5525 10.7617 11.4912C10.7907 11.4299 10.8042 11.3622 10.801 11.2942C10.7979 11.2262 10.7783 11.1601 10.7438 11.1018C10.7094 11.0436 10.6613 10.995 10.6039 10.9606C10.5254 10.9135 10.4354 10.8639 10.3329 10.8128Z"/>
</svg>
