<svg width="19" height="19" viewBox="0 0 19 19" fill="none" xmlns="http://www.w3.org/2000/svg">
<path id="Vector" d="M16.3571 9.44643H15.0714V6.01786C15.0714 5.5632 14.8908 5.12716 14.5693 4.80567C14.2478 4.48418 13.8118 4.30357 13.3571 4.30357H9.92857V3.01786C9.92857 2.44954 9.70281 1.90449 9.30094 1.50263C8.89908 1.10076 8.35404 0.875 7.78571 0.875C7.21739 0.875 6.67235 1.10076 6.27049 1.50263C5.86862 1.90449 5.64286 2.44954 5.64286 3.01786V4.30357H2.21429C1.75963 4.30357 1.32359 4.48418 1.0021 4.80567C0.680612 5.12716 0.5 5.5632 0.5 6.01786V9.275H1.78571C3.07143 9.275 4.1 10.3036 4.1 11.5893C4.1 12.875 3.07143 13.9036 1.78571 13.9036H0.5V17.1607C0.5 17.6154 0.680612 18.0514 1.0021 18.3729C1.32359 18.6944 1.75963 18.875 2.21429 18.875H5.47143V17.5893C5.47143 16.3036 6.5 15.275 7.78571 15.275C9.07143 15.275 10.1 16.3036 10.1 17.5893V18.875H13.3571C13.8118 18.875 14.2478 18.6944 14.5693 18.3729C14.8908 18.0514 15.0714 17.6154 15.0714 17.1607V13.7321H16.3571C16.9255 13.7321 17.4705 13.5064 17.8724 13.1045C18.2742 12.7027 18.5 12.1576 18.5 11.5893C18.5 11.021 18.2742 10.4759 17.8724 10.0741C17.4705 9.67219 16.9255 9.44643 16.3571 9.44643Z" />
</svg>
