<svg width="19" height="19" viewBox="0 0 19 19" fill="none" xmlns="http://www.w3.org/2000/svg">
<path id="Vector" fill-rule="evenodd" clip-rule="evenodd" d="M8.50644 0.534882C7.22963 0.53499 5.97135 0.840426 4.8366 1.42571C3.70184 2.01098 2.7235 2.85914 1.98321 3.8994C1.24293 4.93966 0.76215 6.14187 0.580999 7.40572C0.399848 8.66957 0.523575 9.95841 0.941857 11.1647C1.36014 12.371 2.06085 13.4598 2.98552 14.3403C3.91019 15.2207 5.03201 15.8673 6.25739 16.226C7.48278 16.5847 8.77618 16.6452 10.0297 16.4024C11.2832 16.1597 12.4605 15.6206 13.4633 14.8304L16.9036 18.2705C17.0812 18.442 17.3192 18.537 17.5662 18.5348C17.8132 18.5327 18.0494 18.4336 18.2241 18.259C18.3987 18.0843 18.4978 17.8481 18.5 17.6011C18.5021 17.3541 18.4072 17.1162 18.2356 16.9385L14.7953 13.4984C15.726 12.3177 16.3055 10.8989 16.4675 9.40429C16.6295 7.90968 16.3674 6.39966 15.7112 5.04705C15.055 3.69444 14.0312 2.55388 12.7571 1.7559C11.4829 0.95793 10.0099 0.534781 8.50644 0.534882ZM2.38335 8.5417C2.38335 6.91782 3.02846 5.36044 4.17676 4.21218C5.32506 3.06392 6.8825 2.41884 8.50644 2.41884C10.1304 2.41884 11.6878 3.06392 12.8361 4.21218C13.9844 5.36044 14.6295 6.91782 14.6295 8.5417C14.6295 10.1656 13.9844 11.723 12.8361 12.8712C11.6878 14.0195 10.1304 14.6646 8.50644 14.6646C6.8825 14.6646 5.32506 14.0195 4.17676 12.8712C3.02846 11.723 2.38335 10.1656 2.38335 8.5417Z" />
</svg>
