<svg width="19" height="19" viewBox="0 0 19 19" fill="none" xmlns="http://www.w3.org/2000/svg">
<path id="search" d="M8.50644 0.534912C10.0099 0.534811 11.4829 0.957961 12.7571 1.75593C14.0312 2.55391 15.055 3.69447 15.7112 5.04708C16.3674 6.39969 16.6295 7.90971 16.4675 9.40433C16.3055 10.8989 15.726 12.3178 14.7953 13.4984L18.2356 16.9385C18.4072 17.1162 18.5021 17.3541 18.5 17.6011C18.4978 17.8481 18.3987 18.0844 18.2241 18.259C18.0494 18.4337 17.8132 18.5327 17.5662 18.5349C17.3192 18.537 17.0812 18.4421 16.9036 18.2705L13.4633 14.8304C12.4605 15.6207 11.2832 16.1597 10.0297 16.4025C8.77618 16.6452 7.48278 16.5847 6.25739 16.226C5.03201 15.8673 3.91019 15.2207 2.98552 14.3403C2.06085 13.4599 1.36014 12.3711 0.941857 11.1647C0.523575 9.95844 0.399848 8.6696 0.580999 7.40575C0.76215 6.1419 1.24293 4.93969 1.98321 3.89943C2.7235 2.85917 3.70184 2.01102 4.8366 1.42574C5.97135 0.840456 7.22963 0.535021 8.50644 0.534912ZM8.50644 2.41887C6.8825 2.41887 5.32506 3.06395 4.17676 4.21221C3.02846 5.36047 2.38335 6.91785 2.38335 8.54173C2.38335 10.1656 3.02846 11.723 4.17676 12.8712C5.32506 14.0195 6.8825 14.6646 8.50644 14.6646C10.1304 14.6646 11.6878 14.0195 12.8361 12.8712C13.9844 11.723 14.6295 10.1656 14.6295 8.54173C14.6295 6.91785 13.9844 5.36047 12.8361 4.21221C11.6878 3.06395 10.1304 2.41887 8.50644 2.41887ZM8.50644 3.36085C9.88055 3.36085 11.1984 3.90669 12.17 4.87829C13.1417 5.8499 13.6875 7.16768 13.6875 8.54173C13.6875 9.91579 13.1417 11.2336 12.17 12.2052C11.1984 13.1768 9.88055 13.7226 8.50644 13.7226C7.13233 13.7226 5.81451 13.1768 4.84287 12.2052C3.87122 11.2336 3.32536 9.91579 3.32536 8.54173C3.32536 7.16768 3.87122 5.8499 4.84287 4.87829C5.81451 3.90669 7.13233 3.36085 8.50644 3.36085Z" />
</svg>
