<?xml version="1.0" standalone="no"?>
<!DOCTYPE svg PUBLIC "-//W3C//DTD SVG 20010904//EN"
 "http://www.w3.org/TR/2001/REC-SVG-20010904/DTD/svg10.dtd">
<svg version="1.0" xmlns="http://www.w3.org/2000/svg"
 width="393.000000pt" height="303.000000pt" viewBox="0 0 393.000000 303.000000"
 preserveAspectRatio="xMidYMid meet">

<g transform="translate(0.000000,303.000000) scale(0.100000,-0.100000)"
fill="#000000" stroke="none">
<path d="M0 2615 l0 -414 143 -99 c433 -303 905 -533 1222 -597 99 -20 344
-45 448 -45 l77 0 0 785 0 785 -945 0 -945 0 0 -415z"/>
<path d="M2040 2245 l0 -785 73 0 c163 0 382 27 542 67 278 68 752 309 1133
574 l142 100 0 414 0 415 -945 0 -945 0 0 -785z"/>
<path d="M0 1587 c0 -537 12 -631 105 -822 123 -256 358 -452 626 -524 124
-34 229 -41 590 -41 l346 0 -5 74 c-7 105 15 165 87 237 31 31 73 62 94 70
l37 13 0 351 0 352 -162 6 c-256 10 -455 46 -663 120 -234 82 -621 286 -907
478 l-148 99 0 -413z"/>
<path d="M3826 1930 c-192 -136 -583 -353 -816 -454 -247 -107 -495 -161 -797
-173 l-163 -6 0 -353 0 -352 45 -22 c24 -12 65 -44 89 -71 59 -66 80 -129 74
-225 l-5 -74 351 0 c471 0 575 14 761 105 254 123 450 355 524 624 35 126 42
245 39 668 l-3 403 -99 -70z"/>
<path d="M1879 452 c-90 -56 -109 -71 -109 -86 0 -8 3 -7 8 1 5 8 32 -3 92
-37 47 -27 89 -50 94 -50 13 0 176 100 176 108 0 7 -172 113 -181 111 -2 0
-38 -22 -80 -47z m117 -38 c-8 -16 -18 -42 -21 -57 -9 -44 -26 -21 -18 25 5
36 4 40 -10 35 -19 -7 -23 8 -5 19 6 4 17 -1 24 -10 12 -16 13 -16 24 4 6 12
14 20 16 17 3 -2 -2 -17 -10 -33z"/>
<path d="M2129 343 c-13 -16 -12 -17 4 -4 16 13 21 21 13 21 -2 0 -10 -8 -17
-17z"/>
<path d="M2038 285 c-37 -24 -76 -43 -87 -42 -11 0 -18 4 -16 7 2 4 -9 14 -26
24 -16 9 -29 14 -29 9 0 -4 -5 0 -11 10 -18 30 -29 8 -29 -58 0 -82 12 -90
131 -90 111 0 119 6 119 94 0 39 5 72 12 79 20 20 5 13 -64 -33z"/>
<path d="M1781 274 c0 -11 3 -14 6 -6 3 7 2 16 -1 19 -3 4 -6 -2 -5 -13z"/>
</g>
</svg>
